<svg xmlns="http://www.w3.org/2000/svg" class="holoFigure" viewBox="0 0 420 720" preserveAspectRatio="xMidYMax meet" aria-hidden="true">

  <defs>
    <!-- skin: pale luminous blue-white -->
    <radialGradient id="kSkin" cx="44%" cy="34%" r="82%">
      <stop offset="0" stop-color="#f8faff"/>
      <stop offset=".38" stop-color="#e2eafd"/>
      <stop offset=".7" stop-color="#bac8f4"/>
      <stop offset=".9" stop-color="#92a1ea"/>
      <stop offset="1" stop-color="#7a87dc"/>
    </radialGradient>
    <linearGradient id="kNeck" gradientUnits="userSpaceOnUse" x1="210" y1="150" x2="210" y2="198">
      <stop offset="0" stop-color="#c2cff6"/>
      <stop offset=".55" stop-color="#8794e5"/>
      <stop offset="1" stop-color="#5b67c6"/>
    </linearGradient>
    <!-- hair: deep indigo-navy with cool sheen -->
    <linearGradient id="kHair" gradientUnits="userSpaceOnUse" x1="180" y1="60" x2="244" y2="176">
      <stop offset="0" stop-color="#2e3caa"/>
      <stop offset=".34" stop-color="#222b86"/>
      <stop offset=".68" stop-color="#101745"/>
      <stop offset="1" stop-color="#050922"/>
    </linearGradient>
    <linearGradient id="kHairFr" gradientUnits="userSpaceOnUse" x1="188" y1="66" x2="236" y2="160">
      <stop offset="0" stop-color="#4557d2"/>
      <stop offset=".4" stop-color="#262f96"/>
      <stop offset=".78" stop-color="#121a52"/>
      <stop offset="1" stop-color="#080d30"/>
    </linearGradient>
    <!-- torso suit -->
    <linearGradient id="kBody" gradientUnits="userSpaceOnUse" x1="210" y1="184" x2="210" y2="398">
      <stop offset="0" stop-color="#dde6fb"/>
      <stop offset=".24" stop-color="#b4c3f2"/>
      <stop offset=".52" stop-color="#8a9ae8"/>
      <stop offset=".78" stop-color="#5f6ccc"/>
      <stop offset="1" stop-color="#3f47a8"/>
    </linearGradient>
    <!-- chest plating: soft, integrated -->
    <radialGradient id="kPlate" cx="40%" cy="28%" r="92%">
      <stop offset="0" stop-color="#eef3ff"/>
      <stop offset=".45" stop-color="#cdd9fa"/>
      <stop offset=".82" stop-color="#a4b4f0"/>
      <stop offset="1" stop-color="#94a6ec"/>
    </radialGradient>
    <linearGradient id="kPelv" gradientUnits="userSpaceOnUse" x1="210" y1="376" x2="210" y2="446">
      <stop offset="0" stop-color="#4d55b8"/>
      <stop offset=".55" stop-color="#353c9e"/>
      <stop offset="1" stop-color="#262b85"/>
    </linearGradient>
    <linearGradient id="kLeg" gradientUnits="userSpaceOnUse" x1="210" y1="420" x2="210" y2="706">
      <stop offset="0" stop-color="#4d57c4"/>
      <stop offset=".3" stop-color="#3f49b4"/>
      <stop offset=".62" stop-color="#2d359e"/>
      <stop offset=".86" stop-color="#20257c"/>
      <stop offset="1" stop-color="#181c60"/>
    </linearGradient>
    <linearGradient id="kShin" gradientUnits="userSpaceOnUse" x1="186" y1="566" x2="183" y2="654">
      <stop offset="0" stop-color="#93a2ee" stop-opacity=".6"/>
      <stop offset=".55" stop-color="#6a76d6" stop-opacity=".38"/>
      <stop offset="1" stop-color="#4a52b6" stop-opacity=".18"/>
    </linearGradient>
    <linearGradient id="kLimb" gradientUnits="userSpaceOnUse" x1="132" y1="196" x2="130" y2="430">
      <stop offset="0" stop-color="#cfd9f8"/>
      <stop offset=".45" stop-color="#8d9ce8"/>
      <stop offset="1" stop-color="#4d56bd"/>
    </linearGradient>
    <linearGradient id="kLimbM" gradientUnits="userSpaceOnUse" x1="288" y1="196" x2="290" y2="430">
      <stop offset="0" stop-color="#cfd9f8"/>
      <stop offset=".45" stop-color="#8d9ce8"/>
      <stop offset="1" stop-color="#4d56bd"/>
    </linearGradient>
    <linearGradient id="kFore" gradientUnits="userSpaceOnUse" x1="124" y1="312" x2="138" y2="396">
      <stop offset="0" stop-color="#dbe4fc" stop-opacity=".75"/>
      <stop offset="1" stop-color="#7a88de" stop-opacity=".25"/>
    </linearGradient>
    <linearGradient id="kForeM" gradientUnits="userSpaceOnUse" x1="296" y1="312" x2="282" y2="396">
      <stop offset="0" stop-color="#dbe4fc" stop-opacity=".75"/>
      <stop offset="1" stop-color="#7a88de" stop-opacity=".25"/>
    </linearGradient>
    <!-- glows -->
    <radialGradient id="kCore" cx="50%" cy="42%" r="60%">
      <stop offset="0" stop-color="#ffffff"/>
      <stop offset=".4" stop-color="#c9f2ff"/>
      <stop offset=".75" stop-color="#6fd2ff"/>
      <stop offset="1" stop-color="#2f9fe8"/>
    </radialGradient>
    <radialGradient id="kGlowNode" cx="50%" cy="50%" r="50%">
      <stop offset="0" stop-color="#ffffff"/>
      <stop offset=".45" stop-color="#aef2ff"/>
      <stop offset="1" stop-color="#3ec8ff" stop-opacity="0"/>
    </radialGradient>
    <radialGradient id="kIris" cx="42%" cy="36%" r="70%">
      <stop offset="0" stop-color="#d9f0ff"/>
      <stop offset=".45" stop-color="#9cc8f6"/>
      <stop offset=".85" stop-color="#5c86d8"/>
      <stop offset="1" stop-color="#274a9c"/>
    </radialGradient>
    <radialGradient id="kPool" cx="50%" cy="50%" r="50%">
      <stop offset="0" stop-color="#c2f2ff" stop-opacity=".78"/>
      <stop offset=".5" stop-color="#54ccff" stop-opacity=".26"/>
      <stop offset="1" stop-color="#1f8fd0" stop-opacity="0"/>
    </radialGradient>
    <linearGradient id="kVioV" gradientUnits="userSpaceOnUse" x1="210" y1="200" x2="210" y2="700">
      <stop offset="0" stop-color="#6459d0" stop-opacity=".22"/>
      <stop offset=".55" stop-color="#453cae" stop-opacity=".28"/>
      <stop offset="1" stop-color="#282a8c" stop-opacity=".4"/>
    </linearGradient>
    <!-- scrolling data glyphs -->
    <pattern id="kGlyphs" width="13" height="26" patternUnits="userSpaceOnUse">
      <rect x="1.5" y="3"  width="5"   height="1.05" fill="#eaf6ff"/>
      <rect x="8"   y="7"  width="3.2" height="1.05" fill="#cfeaff" opacity=".85"/>
      <rect x="3"   y="12" width="6.4" height="1.05" fill="#eaf6ff" opacity=".9"/>
      <rect x="9.5" y="17" width="2.2" height="1.05" fill="#f4fbff"/>
      <rect x="2"   y="21" width="4"   height="1.05" fill="#cfeaff" opacity=".8"/>
      <circle cx="7" cy="24" r=".6" fill="#f4fbff" opacity=".9"/>
      <animateTransform attributeName="patternTransform" type="translate" from="0 0" to="0 26" dur="3s" repeatCount="indefinite"/>
    </pattern>
    <pattern id="kMicro" width="10" height="7" patternUnits="userSpaceOnUse">
      <path d="M0 6.4H10" stroke="#dfeeff" stroke-width=".5" opacity=".24"/>
    </pattern>
    <!-- soft-paint filters -->
    <filter id="kB1" x="-60%" y="-60%" width="220%" height="220%"><feGaussianBlur stdDeviation="1.1"/></filter>
    <filter id="kB2" x="-60%" y="-60%" width="220%" height="220%"><feGaussianBlur stdDeviation="2.2"/></filter>
    <filter id="kB4" x="-80%" y="-80%" width="260%" height="260%"><feGaussianBlur stdDeviation="4.2"/></filter>
    <clipPath id="kEyeClip">
      <path d="M190.3 119.3 C191.9 116.2 194.9 114.7 198 115.1 C200.3 115.4 202 116.6 202.8 118.4 C201.3 121.4 198.3 122.9 195 122.5 C192.8 122.2 191.2 121 190.3 119.3 Z"/>
      <path d="M229.7 119.3 C228.1 116.2 225.1 114.7 222 115.1 C219.7 115.4 218 116.6 217.2 118.4 C218.7 121.4 221.7 122.9 225 122.5 C227.2 122.2 228.8 121 229.7 119.3 Z"/>
    </clipPath>
  </defs>
  <g class="figureRoot">
    <!-- ground light pool -->
    <ellipse cx="210" cy="704" rx="88" ry="9.5" fill="url(#kPool)" opacity=".6"/>
    <ellipse cx="210" cy="704" rx="54" ry="5" fill="none" stroke="#a8edff" stroke-width=".7" opacity=".35"/>
    <ellipse cx="183" cy="704.5" rx="21" ry="3" fill="#081741" opacity=".42" filter="url(#kB1)"/>
    <ellipse cx="237" cy="704.5" rx="21" ry="3" fill="#081741" opacity=".42" filter="url(#kB1)"/>

    <!-- soft body aura -->
    <path d="M210 60 C188 60 174 82 174 110 L176 166 C162 176 152 190 148 208 L138 330 C136 348 137 372 143 392 L154 402 C150 448 154 500 163 548 C168 584 170 640 172 676 C173 694 178 704 188 707 L232 707 C242 704 247 694 248 676 C250 640 252 584 257 548 C266 500 270 448 266 402 L277 392 C283 372 284 348 282 330 L272 208 C268 190 258 176 244 166 L246 110 C246 82 232 60 210 60 Z" fill="#7b96ff" opacity=".09" filter="url(#kB4)"/>

    <g class="pelvisGroup">
      <g class="legs">
        <path d="M159 410 C156.2 434 153.6 458 155.1 480 C156.7 505 162 532 169.2 554 C171.4 561 172 566 171.6 572 C169.8 583 169 592 170.4 604 C172.4 622 175.6 640 178.2 652 C179 656 179.4 659 179.4 662 L191.2 662 C192.4 654 194.2 644 196.2 634 C199.6 620 202.8 606 203.9 592 C204.9 578 204.7 566 203.9 556 C203 543 202.4 528 202.7 512 C203 494 205 470 208.2 452 C209 448 209.6 442 209.8 436 L209.8 414 C196 406 171 404 159 410 Z" fill="url(#kLeg)"/>
        <path d="M261 410C263.8 434 266.4 458 264.9 480C263.3 505 258 532 250.8 554C248.6 561 248 566 248.4 572C250.2 583 251 592 249.6 604C247.6 622 244.4 640 241.8 652C241 656 240.6 659 240.6 662L228.8 662C227.6 654 225.8 644 223.8 634C220.4 620 217.2 606 216.1 592C215.1 578 215.3 566 216.1 556C217 543 217.6 528 217.3 512C217 494 215 470 211.8 452C211 448 210.4 442 210.2 436L210.2 414C224 406 249 404 261 410Z" fill="url(#kLeg)"/>
        <path d="M208.2 452 C205 470 203 494 202.7 512 C202.4 528 203 543 203.9 556 C204.7 566 204.9 578 203.9 592 C202.8 606 199.6 620 196.2 634 C194.2 644 192.4 654 191.2 662 L186.8 662 C188.3 650.5 190.3 638.5 192.4 626.5 C195.4 610.5 197.9 596.5 198.7 584 C199.5 570 199.3 560 198.7 550 C197.9 538 197.4 524 197.7 510 C198 492 199.7 470 202.7 452.5 C204.5 451.9 206.4 451.9 208.2 452 Z" fill="#151a5c" opacity=".5" filter="url(#kB1)"/>
        <path d="M211.8 452C215 470 217 494 217.3 512C217.6 528 217 543 216.1 556C215.3 566 215.1 578 216.1 592C217.2 606 220.4 620 223.8 634C225.8 644 227.6 654 228.8 662L233.2 662C231.7 650.5 229.7 638.5 227.6 626.5C224.6 610.5 222.1 596.5 221.3 584C220.5 570 220.7 560 221.3 550C222.1 538 222.6 524 222.3 510C222 492 220.3 470 217.3 452.5C215.5 451.9 213.6 451.9 211.8 452Z" fill="#151a5c" opacity=".5" filter="url(#kB1)"/>
        <path d="M261 410C263.8 434 266.4 458 264.9 480C263.3 505 258 532 250.8 554C248.6 561 248 566 248.4 572C250.2 583 251 592 249.6 604C247.6 622 244.4 640 241.8 652C241 656 240.6 659 240.6 662L228.8 662C227.6 654 225.8 644 223.8 634C220.4 620 217.2 606 216.1 592C215.1 578 215.3 566 216.1 556C217 543 217.6 528 217.3 512C217 494 215 470 211.8 452C211 448 210.4 442 210.2 436L210.2 414C224 406 249 404 261 410Z" fill="#141852" opacity=".14"/>
        <!-- thigh sheen -->
        <path d="M166 448 C162.6 470 162.8 496 166.8 522" fill="none" stroke="#e8f0ff" stroke-width="4.6" opacity=".18" stroke-linecap="round" filter="url(#kB2)"/>
        <path d="M254 448 C257.4 470 257.2 496 253.2 522" fill="none" stroke="#c3d4ff" stroke-width="3.6" opacity=".1" stroke-linecap="round" filter="url(#kB2)"/>
        <path d="M159 410 C156.2 434 153.6 458 155.1 480 C156.7 505 162 532 169.2 554 C171.4 561 172 566 171.6 572 C169.8 583 169 592 170.4 604 C172.4 622 175.6 640 178.2 652 C179 656 179.4 659 179.4 662 L191.2 662 C192.4 654 194.2 644 196.2 634 C199.6 620 202.8 606 203.9 592 C204.9 578 204.7 566 203.9 556 C203 543 202.4 528 202.7 512 C203 494 205 470 208.2 452 C209 448 209.6 442 209.8 436 L209.8 414 C196 406 171 404 159 410 Z" fill="url(#kGlyphs)" opacity=".07"/>
        <path d="M261 410C263.8 434 266.4 458 264.9 480C263.3 505 258 532 250.8 554C248.6 561 248 566 248.4 572C250.2 583 251 592 249.6 604C247.6 622 244.4 640 241.8 652C241 656 240.6 659 240.6 662L228.8 662C227.6 654 225.8 644 223.8 634C220.4 620 217.2 606 216.1 592C215.1 578 215.3 566 216.1 556C217 543 217.6 528 217.3 512C217 494 215 470 211.8 452C211 448 210.4 442 210.2 436L210.2 414C224 406 249 404 261 410Z" fill="url(#kGlyphs)" opacity=".07"/>
        <!-- rim lights -->
        <path d="M156.5 446 C155.4 458 156 470 157.5 482 C159.4 502 163.6 528 170.2 550 M170.6 576 C169.4 586 169.4 594 170.7 606 C172.6 622 175.5 638 178 651" fill="none" stroke="#eef5ff" stroke-width="1.25" opacity=".55" stroke-linecap="round"/>
        <path d="M263.5 446C264.6 458 264 470 262.5 482C260.6 502 256.4 528 249.8 550M249.4 576C250.6 586 250.6 594 249.3 606C247.4 622 244.5 638 242 651" fill="none" stroke="#9db4f6" stroke-width="1" opacity=".3" stroke-linecap="round"/>
        <path d="M203.4 560 C204.2 570 204.2 580 203.3 592 C202.2 606 199.2 620 195.9 634" fill="none" stroke="#8fa6f0" stroke-width=".8" opacity=".22" stroke-linecap="round"/>
        <path d="M216.6 560C215.8 570 215.8 580 216.7 592C217.8 606 220.8 620 224.1 634" fill="none" stroke="#8fa6f0" stroke-width=".8" opacity=".22" stroke-linecap="round"/>
        <!-- knees -->
        <ellipse cx="187.8" cy="555.5" rx="5" ry="6" fill="#aebdf4" opacity=".18" filter="url(#kB2)"/>
        <ellipse cx="232.2" cy="555.5" rx="5" ry="6" fill="#aebdf4" opacity=".18" filter="url(#kB2)"/>
        <path d="M180.4 548.5 C185 546 191 546 195.4 548.8" fill="none" stroke="#d9e6ff" stroke-width="1.1" opacity=".45" stroke-linecap="round"/>
        <path d="M239.6 548.5C235 546 229 546 224.6 548.8" fill="none" stroke="#d9e6ff" stroke-width="1.1" opacity=".35" stroke-linecap="round"/>
        <path d="M182.6 566.5 Q188 570 193.6 567" fill="none" stroke="#171e66" stroke-width="1" opacity=".45" stroke-linecap="round" filter="url(#kB1)"/>
        <path d="M237.4 566.5Q232 570 226.4 567" fill="none" stroke="#171e66" stroke-width="1" opacity=".45" stroke-linecap="round" filter="url(#kB1)"/>
        <!-- shin plates -->
        <path d="M179.8 574 C178 588 178 604 179.8 620 C181 632 182.8 644 184.6 652.5 L188.8 652.5 C190.2 642 191.6 630 192.4 618 C193.4 604 193.4 590 192.6 578 C188.4 574.8 183.6 573.6 179.8 574 Z" fill="url(#kShin)"/>
        <path d="M240.2 574C242 588 242 604 240.2 620C239 632 237.2 644 235.4 652.5L231.2 652.5C229.8 642 228.4 630 227.6 618C226.6 604 226.6 590 227.4 578C231.6 574.8 236.4 573.6 240.2 574Z" fill="url(#kShin)"/>
        <path d="M184.8 576 C183.8 596 184 622 186 648" fill="none" stroke="#e6efff" stroke-width="1.2" opacity=".4" stroke-linecap="round"/>
        <path d="M235.2 576C236.2 596 236 622 234 648" fill="none" stroke="#aebff4" stroke-width="1" opacity=".25" stroke-linecap="round"/>
        <!-- outer-thigh tech glyph blocks -->
        <path d="M158.8 470 L174.5 466 L177 479 L169.5 482.5 L172 495 L161 498 Z" fill="#b9d2ff" opacity=".16"/>
        <path d="M261.2 470L245.5 466L243 479L250.5 482.5L248 495L259 498Z" fill="#b9d2ff" opacity=".16"/>
        <path d="M158.8 470 L174.5 466 L177 479 L169.5 482.5 L172 495 L161 498 Z" fill="none" stroke="#a9e2ff" stroke-width=".75" opacity=".55"/>
        <path d="M261.2 470L245.5 466L243 479L250.5 482.5L248 495L259 498Z" fill="none" stroke="#a9e2ff" stroke-width=".75" opacity=".55"/>
        <path class="cCircuit hot" d="M161.2 474.4 L170.8 472 M163.6 486.8 L169.4 485.2"/>
        <path class="cCircuit hot" d="M258.8 474.4L249.2 472M256.4 486.8L250.6 485.2"/>
        <!-- suit seams -->
        <path class="cPanel" d="M162 466 Q182 476 202 468 M258 466 Q238 476 218 468 M167 528 Q184 535 200 529 M253 528 Q236 535 220 529 M175 610 Q186 615 196 611 M245 610 Q234 615 224 611"/>
        <!-- main data rails: feet to hip -->
        <path class="cCircuit hot circuitFlow" d="M182 654 L184 618 L180 582 L185 546 L179 508 L184 470 L181 434 M238 654 L236 618 L240 582 L235 546 L241 508 L236 470 L239 434"/>
        <path class="cCircuit" d="M191 640 L190 606 L193 574 L191.5 542 M229 640 L230 606 L227 574 L228.5 542"/>
        <circle class="cNode" cx="180" cy="582" r="1.9"/><circle class="cNode" cx="240" cy="582" r="1.9"/>
        <circle class="cNode" cx="184" cy="470" r="1.9"/><circle class="cNode" cx="236" cy="470" r="1.9"/>
        <circle cx="180.6" cy="657.6" r="1.4" fill="#cde0fd" opacity=".5"/>
        <circle cx="239.4" cy="657.6" r="1.4" fill="#cde0fd" opacity=".5"/>
        <!-- feet -->
        <path d="M179.6 660 C178.2 668.4 176 676 172.8 682.4 C170 687.6 168.2 692 168 695.2 C167.9 698.6 170.2 700.9 174.6 701.7 C181 702.8 188.8 702.5 194 700.8 C197 699.8 198.5 697.6 198.7 694 C199 685.8 198 674.8 196.2 663.8 C194.8 662 193.2 660.9 191.4 660.4 Z" fill="url(#kLeg)"/>
        <path d="M240.4 660C241.8 668.4 244 676 247.2 682.4C250 687.6 251.8 692 252 695.2C252.1 698.6 249.8 700.9 245.4 701.7C239 702.8 231.2 702.5 226 700.8C223 699.8 221.5 697.6 221.3 694C221 685.8 222 674.8 223.8 663.8C225.2 662 226.8 660.9 228.6 660.4Z" fill="url(#kLeg)"/>
        <path d="M179.6 660 C178.4 667 176.6 673.8 174.2 679.8 C177.8 680.8 183 681.2 188 680.8 C191.6 680.4 194.4 679.6 196 678.6 C195.6 672.6 194.9 666.6 194 661.6 C189.4 660.3 184 660 179.6 660 Z" fill="#7d8ce0" opacity=".2" filter="url(#kB1)"/>
        <path d="M240.4 660C241.6 667 243.4 673.8 245.8 679.8C242.2 680.8 237 681.2 232 680.8C228.4 680.4 225.6 679.6 224 678.6C224.4 672.6 225.1 666.6 226 661.6C230.6 660.3 236 660 240.4 660Z" fill="#7d8ce0" opacity=".14" filter="url(#kB1)"/>
        <path d="M173.4 694.2 C179.2 696.2 187.2 696.2 193.6 694.5" fill="none" stroke="#dfe9ff" stroke-width=".9" opacity=".4" stroke-linecap="round"/>
        <path d="M246.6 694.2C240.8 696.2 232.8 696.2 226.4 694.5" fill="none" stroke="#dfe9ff" stroke-width=".9" opacity=".3" stroke-linecap="round"/>
        <path d="M171.8 690 C177.4 693.2 186.6 694.3 194.8 693" fill="none" stroke="#cbdcff" stroke-width=".9" opacity=".42" stroke-linecap="round"/>
        <path d="M248.2 690C242.6 693.2 233.4 694.3 225.2 693" fill="none" stroke="#cbdcff" stroke-width=".9" opacity=".32" stroke-linecap="round"/>
        <path d="M181.4 664 C179.6 672 177.4 679 174.6 684.6" fill="none" stroke="#e4eeff" stroke-width="1.3" opacity=".35" stroke-linecap="round" filter="url(#kB1)"/>
        <path d="M238.6 664C240.4 672 242.6 679 245.4 684.6" fill="none" stroke="#e4eeff" stroke-width="1.1" opacity=".25" stroke-linecap="round" filter="url(#kB1)"/>
        <path class="toe" d="M177.4 696 L177.4 700.4 M182 696.5 L182 701.2 M186.8 696.3 L186.8 701.3 M191.6 695.5 L191.8 700.2"/>
        <path class="toe" d="M242.6 696L242.6 700.4M238 696.5L238 701.2M233.2 696.3L233.2 701.3M228.4 695.5L228.2 700.2"/>
      </g>

      <!-- pelvis / armored hip wrap -->
      <path fill="url(#kPelv)" d="M164 372 C156.4 382.8 153.4 397.6 157.6 413.6 C161.4 427.2 173 436.4 189.4 439.6 C196.2 440.9 203.2 441.4 210 441.4 C216.8 441.4 223.8 440.9 230.6 439.6 C247 436.4 258.6 427.2 262.4 413.6 C266.6 397.6 263.6 382.8 256 372 C242.8 363 226.6 359.6 210 359.6 C193.4 359.6 177.2 363 164 372 Z"/>
      <!-- waistband seam -->
      <path fill="none" stroke="#cad7fa" stroke-width=".9" opacity=".35" d="M166 384 Q210 400 254 384"/>
      <path fill="none" stroke="#12184f" stroke-width=".8" opacity=".38" d="M167.5 391 Q210 407 252.5 391"/>
      <!-- pelvic V plates -->
      <path fill="#1b2068" opacity=".22" filter="url(#kB1)" d="M180 415 L210 440 L240 415 L240 421.5 L210 445.5 L180 421.5 Z"/>
      <path fill="none" stroke="#cfdcfb" stroke-width=".8" opacity=".32" d="M182.5 412.5 L210 435.5 M237.5 412.5 L210 435.5"/>
      <!-- crotch + under-wrap AO where thighs emerge -->
      <path fill="#111650" opacity=".5" filter="url(#kB1)" d="M203.5 438 Q210 445.5 216.5 438 L214.5 445 Q210 449.5 205.5 445 Z"/>
      <path fill="#161b5e" opacity=".35" filter="url(#kB2)" d="M162 424 Q182 438 205 441 L204 448 Q179 444 160 432 Z"/>
      <path fill="#161b5e" opacity=".35" filter="url(#kB2)" d="M258 424 Q238 438 215 441 L216 448 Q241 444 260 432 Z"/>
      <!-- hip side sheen -->
      <path d="M162 380 C158.6 392 158.4 405 161.8 417" fill="none" stroke="#e8f0ff" stroke-width="2.6" opacity=".2" stroke-linecap="round" filter="url(#kB2)"/>
      <path fill="url(#kGlyphs)" opacity=".08" d="M164 372 C156.4 382.8 153.4 397.6 157.6 413.6 C161.4 427.2 173 436.4 189.4 439.6 L230.6 439.6 C247 436.4 258.6 427.2 262.4 413.6 C266.6 397.6 263.6 382.8 256 372 C242.8 363 226.6 359.6 210 359.6 C193.4 359.6 177.2 363 164 372 Z"/>
      <!-- rails through the pelvis -->
      <path class="cCircuit circuitFlow" d="M189 437 L191 408 L202 392 L202 372 M231 437 L229 408 L218 392 L218 372"/>
      <circle class="cNode" cx="191" cy="408" r="2"/><circle class="cNode" cx="229" cy="408" r="2"/>
    </g>

    <g class="torsoGroup">
      <path fill="url(#kBody)" d="M197 186.8 C188.4 187.6 179.6 190 172 194.4 C166.4 197.6 162.4 202 160.4 207.6 C158.4 213.2 158.2 220.4 159.8 228.4 C161.8 238.4 164.6 250.4 166.6 263 C168.6 276.4 172.4 289.4 175.2 302.4 C177 316.4 173.6 330.6 169.9 344.6 C166.6 357.4 167 369.4 172.6 379.2 C182.4 388 196 391.6 210 391.6 C224 391.6 237.6 388 247.4 379.2 C253 369.4 253.4 357.4 250.1 344.6 C246.4 330.6 243 316.4 244.8 302.4 C247.6 289.4 251.4 276.4 253.4 263 C255.4 250.4 258.2 238.4 260.2 228.4 C261.8 220.4 261.6 213.2 259.6 207.6 C257.6 202 253.6 197.6 248 194.4 C240.4 190 231.6 187.6 223 186.8 C218.6 186.4 214.2 186.2 210 186.2 C205.8 186.2 201.4 186.4 197 186.8 Z"/>
      <!-- right-side core shadow -->
      <path fill="#1d2470" opacity=".26" filter="url(#kB2)" d="M223 186.8 C231.6 187.6 240.4 190 248 194.4 C253.6 197.6 257.6 202 259.6 207.6 C261.6 213.2 261.8 220.4 260.2 228.4 C258.2 238.4 255.4 250.4 253.4 263 C251.4 276.4 248.4 289.4 246.2 302.4 C244.4 316.4 247.6 330.6 251.1 344.6 C253.8 356 253.8 366.6 249.8 375.2 C251.4 364 249 351.2 246 338.4 C243.2 326 240.6 312.5 241.6 300 C243.2 286 246.4 273 249.4 260 C252.4 247 255.2 235 256.8 226 C258.2 216.5 255.8 208.5 249.8 202.5 C242.2 197 233 193.5 223 186.8 Z"/>
      <!-- left rim light -->
      <path fill="none" stroke="#eff5ff" stroke-width="1.25" opacity=".55" stroke-linecap="round" d="M194 187.6 C185.8 188.8 177.8 191.4 171 195.4 C165.6 198.6 161.8 203.2 160.9 208.6 C159.9 214 160 220.8 161.4 228 C163.4 236.5 166 249 168.4 261.5"/>
      <!-- broad center sheen -->
      <path d="M197 202 C193.6 242 192.8 292 195.8 340 C196.8 360 198 375 199.6 384" fill="none" stroke="#f2f7ff" stroke-width="6.4" opacity=".12" stroke-linecap="round" filter="url(#kB4)"/>
      <!-- deltoid cast shadow on shoulder corner -->
      <path fill="#232b7c" opacity=".3" filter="url(#kB2)" d="M160.5 208 C159 214 158.8 221 160.2 228.6 L166.8 227 C165.2 220.4 164.6 213.8 165 208.2 Z"/>
      <path fill="#232b7c" opacity=".3" filter="url(#kB2)" d="M259.5 208 C261 214 261.2 221 259.8 228.6 L253.2 227 C254.8 220.4 255.4 213.8 255 208.2 Z"/>
      <!-- collar plates + clavicles -->
      <path fill="#c9d6f8" opacity=".22" d="M198 190.5 Q210 195.5 222 190.5 L221 196.5 Q210 201 199 196.5 Z"/>
      <path fill="none" stroke="#e0eaff" stroke-width="1" opacity=".5" stroke-linecap="round" d="M210 202.5 Q196 208.5 181 202 M210 202.5 Q224 208.5 239 202"/>
      <path fill="none" stroke="#20286f" stroke-width=".8" opacity=".28" stroke-linecap="round" d="M210 206 Q198 211 186.5 206 M210 206 Q222 211 233.5 206"/>
      <ellipse cx="196.5" cy="199" rx="5" ry="2.2" fill="#39429e" opacity=".2" filter="url(#kB2)"/>
      <ellipse cx="223.5" cy="199" rx="5" ry="2.2" fill="#39429e" opacity=".2" filter="url(#kB2)"/>
      <!-- pectoral modeling above plates -->
      <path fill="#4d59b8" opacity=".16" filter="url(#kB2)" d="M206 212 C204.6 220 204.4 229 205.4 238 L214.6 238 C215.6 229 215.4 220 214 212 Z"/>
      <!-- chest plates -->
      <path fill="url(#kPlate)" d="M176.2 246 C177.8 238.8 183.8 234 191.2 234.3 C199.8 234.7 205.9 240.8 206.5 249.2 C207 257.2 202.8 264.4 195.6 267.4 C189.2 270 181.8 268.5 177.5 263.2 C174.2 258.8 173.8 252.2 176.2 246 Z"/>
      <path fill="url(#kPlate)" d="M243.8 246 C242.2 238.8 236.2 234 228.8 234.3 C220.2 234.7 214.1 240.8 213.5 249.2 C213 257.2 217.2 264.4 224.4 267.4 C230.8 270 238.2 268.5 242.5 263.2 C245.8 258.8 246.2 252.2 243.8 246 Z"/>
      <path fill="none" stroke="#ffffff" stroke-width="1.3" opacity=".3" stroke-linecap="round" filter="url(#kB1)" d="M180 243.6 C182.6 239 187.4 236.6 192.4 237 M240 243.6 C237.4 239 232.6 236.6 227.6 237"/>
      <path fill="#39429e" opacity=".16" filter="url(#kB2)" d="M175.4 252 C176 258 178.6 263.2 182.8 266.6 C178.2 265.2 174.6 261.4 173.4 256.6 Z"/>
      <path fill="#39429e" opacity=".16" filter="url(#kB2)" d="M244.6 252 C244 258 241.4 263.2 237.2 266.6 C241.8 265.2 245.4 261.4 246.6 256.6 Z"/>
      <path fill="none" stroke="#1c2468" stroke-width="1" opacity=".32" stroke-linecap="round" d="M178.4 264.5 Q188.6 271.8 200.6 267.4 M241.6 264.5 Q231.4 271.8 219.4 267.4"/>
      <path fill="#171d61" opacity=".26" filter="url(#kB2)" d="M178.5 268 Q190 275 201.5 270.5 L200.5 275.5 Q189.5 279 179 273 Z"/>
      <path fill="#171d61" opacity=".26" filter="url(#kB2)" d="M241.5 268 Q230 275 218.5 270.5 L219.5 275.5 Q230.5 279 241 273 Z"/>
      <!-- sternum channel + core -->
      <path fill="#1a2166" opacity=".28" filter="url(#kB2)" d="M206.8 236 C205.8 244 205.8 253 206.9 261 L213.2 261 C214.2 253 214.2 244 213.2 236 Z"/>
      <circle cx="210" cy="249" r="6" fill="#242c86"/>
      <circle cx="210" cy="249" r="6" fill="none" stroke="#cfe6ff" stroke-width=".9" opacity=".8"/>
      <ellipse cx="210" cy="249" rx="2.9" ry="4.1" fill="url(#kCore)"/>
      <circle cx="210" cy="249" r="10.5" fill="url(#kGlowNode)" opacity=".5"/>
      <path d="M210 240.6 L210 237.4 M210 257.4 L210 260.6 M202 249 L199 249 M218 249 L221 249" stroke="#bfe9ff" stroke-width=".8" opacity=".6"/>
      <!-- abdomen: center seam, panels, navel -->
      <path fill="none" stroke="#161d5e" stroke-width=".85" opacity=".4" d="M210 274 L210 354"/>
      <path fill="#0f1650" opacity=".12" filter="url(#kB1)" d="M189 298 Q210 306 231 298 L230 302 Q210 309.5 190 302 Z"/>
      <path fill="#0f1650" opacity=".11" filter="url(#kB1)" d="M187.5 318 Q210 326.5 232.5 318 L231.5 322 Q210 330 188.5 322 Z"/>
      <path fill="#0f1650" opacity=".1" filter="url(#kB1)" d="M187 338 Q210 346.5 233 338 L232 342 Q210 350 188 342 Z"/>
      <path fill="none" stroke="#e4edff" stroke-width=".9" opacity=".3" stroke-linecap="round" d="M192 294 Q210 301 228 294"/>
      <ellipse cx="210" cy="351" rx="1.6" ry="2.4" fill="#10164c" opacity=".55"/>
      <path d="M207.8 354.8 Q210 356.2 212.2 354.8" fill="none" stroke="#c9d8fb" stroke-width=".6" opacity=".5"/>
      <!-- waist side AO -->
      <path fill="#1a2168" opacity=".3" filter="url(#kB2)" d="M173.5 296 C175.6 312 173 328 169.6 343 L175.5 345 C179 331 181.4 315 179.6 299 Z"/>
      <path fill="#1a2168" opacity=".3" filter="url(#kB2)" d="M246.5 296 C244.4 312 247 328 250.4 343 L244.5 345 C241 331 238.6 315 240.4 299 Z"/>
      <!-- under-bust + hip tint -->
      <path fill="url(#kVioV)" opacity=".26" d="M170 340 Q210 356 250 340 L247.5 368 Q210 384 172.5 368 Z"/>
      <path fill="url(#kGlyphs)" opacity=".09" d="M197 186.8 C188.4 187.6 179.6 190 172 194.4 C166.4 197.6 162.4 202 160.4 207.6 C158.4 213.2 158.2 220.4 159.8 228.4 C161.8 238.4 164.6 250.4 166.6 263 C168.6 276.4 172.4 289.4 175.2 302.4 C177 316.4 173.6 330.6 169.9 344.6 C166.6 357.4 167 369.4 172.6 379.2 C182.4 388 196 391.6 210 391.6 C224 391.6 237.6 388 247.4 379.2 C253 369.4 253.4 357.4 250.1 344.6 C246.4 330.6 243 316.4 244.8 302.4 C247.6 289.4 251.4 276.4 253.4 263 C255.4 250.4 258.2 238.4 260.2 228.4 C261.8 220.4 261.6 213.2 259.6 207.6 C257.6 202 253.6 197.6 248 194.4 C240.4 190 231.6 187.6 223 186.8 C218.6 186.4 214.2 186.2 210 186.2 C205.8 186.2 201.4 186.4 197 186.8 Z"/>
      <path fill="url(#kMicro)" opacity=".2" d="M175.2 302.4 C177 316.4 173.6 330.6 169.9 344.6 C166.6 357.4 167 369.4 172.6 379.2 C182.4 388 196 391.6 210 391.6 C224 391.6 237.6 388 247.4 379.2 C253 369.4 253.4 357.4 250.1 344.6 C246.4 330.6 243 316.4 244.8 302.4 L242.5 295.5 Q210 308.5 177.5 295.5 Z"/>
      <!-- suit seams + data rails -->
      <path class="cPanel" d="M171.5 287 Q210 301 248.5 287 M170.5 345 Q210 359 249.5 345"/>
      <path class="cCircuit circuitFlow" d="M195 390 L193 352 L201 328 L199 298 L191 272 L196 236 L202 208 M225 390 L227 352 L219 328 L221 298 L229 272 L224 236 L218 208"/>
      <path class="cCircuit" d="M199 249 L204 249 M216 249 L221 249"/>
      <circle class="cNode" cx="201" cy="328" r="2"/><circle class="cNode" cx="219" cy="328" r="2"/>
      <circle class="cNode" cx="191" cy="272" r="1.8"/><circle class="cNode" cx="229" cy="272" r="1.8"/>
      <circle class="cNode" cx="210" cy="215" r="2"/>
      <circle cx="210" cy="215" r="5" fill="url(#kGlowNode)" opacity=".45"/>
    </g>

    <g class="arm armR">
      <path d="M146 199 C137.6 201.2 131.4 207.4 129.9 215.6 C128.6 223.6 131.6 231.2 138 235 C144.9 239 154.4 238.1 160.7 233 C165.6 229 167.9 222.2 166.4 215.2 C164.5 206.4 156.2 198 146 199 Z" fill="url(#kLimb)"/>
      <path d="M135.6 206.2 C140 201.6 147.2 199.9 153.6 202.2" fill="none" stroke="#f5f9ff" stroke-width="1.1" opacity=".26" stroke-linecap="round" filter="url(#kB1)"/>
      <path d="M131.4 226.5 C136.4 233.4 145.6 236.6 154.6 234.2" fill="none" stroke="#1d2470" stroke-width="1.5" opacity=".26" stroke-linecap="round" filter="url(#kB1)"/>
      <path d="M130.2 226 C127.6 244 126.4 268 127 292 C127.2 300 127.8 306 128.8 309.4 C131 314 137.4 314.2 139.6 309.6 C141.4 302 142.6 292 143.2 280 C144 262 143.8 242 142 228 C138.4 233.8 133.6 232.6 130.2 226 Z" fill="url(#kLimb)"/>
      <path d="M130.2 226 C127.6 244 126.4 268 127 292 C127.2 300 127.8 306 128.8 309.4 C131 314 137.4 314.2 139.6 309.6 C141.4 302 142.6 292 143.2 280 C144 262 143.8 242 142 228 C138.4 233.8 133.6 232.6 130.2 226 Z" fill="url(#kGlyphs)" opacity=".07"/>
      <path d="M131.2 240 C129.6 258 129 278 129.4 296" fill="none" stroke="#e5eeff" stroke-width="1.1" opacity=".4" stroke-linecap="round"/>
      <path d="M141.8 236 C142.9 252 143 272 142.2 290" fill="none" stroke="#1c2268" stroke-width="1.3" opacity=".26" stroke-linecap="round" filter="url(#kB1)"/>
      <path class="cPanel" d="M129.5 241 Q136.5 245 144 241"/>
      <path class="cCircuit circuitFlow" d="M144 202 L133.5 246 L131.5 290 L131.5 306"/>
      <circle cx="135" cy="310" r="8" fill="url(#kLimb)"/>
      <path d="M129.8 316.5 Q135 319.6 140.2 316.5" fill="none" stroke="#242c7e" stroke-width=".75" opacity=".3" stroke-linecap="round"/>
      <g class="forearm forearmR">
        <path d="M127.2 306.5 C124.2 318 122.5 334 122.1 350 C121.8 366 123 382 125.4 395.4 C126.4 400.4 135.4 400.6 136.4 395.5 C138.6 383 140.1 368 140.6 352.5 C141.1 337 140.6 321.5 139 308.8 C135.6 314.4 130.4 313.6 127.2 306.5 Z" fill="url(#kLimb)"/>
        <path d="M125 318 C123.2 334 122.8 352 123.4 368 C123.8 379 124.8 388 126.2 394 L130.4 394.6 C129 382 128.4 366 128.6 350 C128.8 336 129.6 324 131 314.6 Z" fill="url(#kFore)"/>
        <path d="M130.6 316 C129.2 326 128.5 338 128.4 350 C128.3 366 128.9 382 130.2 394.2" fill="none" stroke="#eaf1ff" stroke-width=".8" opacity=".42" stroke-linecap="round"/>
        <path d="M127.2 306.5 C124.2 318 122.5 334 122.1 350 C121.8 366 123 382 125.4 395.4 C126.4 400.4 135.4 400.6 136.4 395.5 C138.6 383 140.1 368 140.6 352.5 C141.1 337 140.6 321.5 139 308.8 C135.6 314.4 130.4 313.6 127.2 306.5 Z" fill="url(#kGlyphs)" opacity=".06"/>
        <path d="M126.2 324 C124.8 344 124.8 366 126.4 386" fill="none" stroke="#e5eeff" stroke-width="1" opacity=".32" stroke-linecap="round"/>
        <path class="cPanel" d="M124.5 345 Q131 349 139 345"/>
        <path class="cCircuit circuitFlow" d="M131.5 312 L126.5 350 L128.5 392"/>
        <circle cx="131" cy="397" r="5.4" fill="url(#kLimb)"/>
        <g class="handR">
          <path d="M125.2 395.2 C122.6 399.4 121.2 404.8 121.2 410.6 C121.2 416 122 420.8 123.6 424.4 C127.8 427.6 134.6 427.4 138.2 423.2 C139.6 419.4 140.2 414.2 139.8 409 C139.4 404.2 138.2 400 136.4 397.2 C133 400.7 128.4 400.3 125.2 395.2 Z" fill="url(#kLimb)"/>
          <path d="M129 404.5 L127.4 420.5 M133 404.5 L132.6 421.5" fill="none" stroke="#28308a" stroke-width=".6" opacity=".28" stroke-linecap="round"/>
          <path d="M136.2 423.2 C137.4 429.8 137.9 436.4 137.7 442.4 C137.6 445.6 136.9 447.8 135.8 448.4 C134.7 448.9 133.7 447.7 133.5 445.2 C133.2 438.8 133.2 431.4 133.6 424.6 Z" fill="url(#kLimb)"/>
          <path d="M132.6 424.8 C133.3 431.8 133.5 439.6 133.1 446.4 C132.9 449.9 132.1 452.2 131 452.2 C129.9 452.2 129.1 449.9 129 446.4 C128.8 439.4 129 431.6 129.5 424.9 Z" fill="url(#kLimb)"/>
          <path d="M128.6 424.7 C129 431 129 438.2 128.6 444.4 C128.4 447.6 127.6 449.7 126.6 449.6 C125.6 449.5 124.9 447.4 124.8 444.2 C124.7 437.8 124.9 430.8 125.3 424.4 Z" fill="url(#kLimb)"/>
          <path d="M124.6 423 C124.8 428.2 124.7 433.4 124.3 437.8 C124.1 440.6 123.3 442.4 122.4 442.3 C121.5 442.2 120.9 440.4 120.9 437.6 C120.9 432.8 121.2 427.6 121.6 422.7 Z" fill="url(#kLimb)"/>
          <path d="M133.9 425 L133.7 432.5 M129.3 425.2 L129.15 434 M125 424.6 L124.9 431.5" fill="none" stroke="#1a2160" stroke-width=".6" opacity=".5" stroke-linecap="round"/>
          <path class="finger" d="M136.9 428 L137.1 435 M132.9 429 L133 437 M128.8 428.4 L128.7 436"/>
          <path d="M137.8 402.6 C140.8 405.6 143.2 409.8 144.2 414.4 C144.9 417.6 144.4 420.2 142.9 421 C141.5 421.7 139.9 420.4 138.9 417.8 C137.7 414.4 137.1 409.8 137.2 405.2 Z" fill="url(#kLimb)"/>
          <path d="M124.8 422.6 Q131.6 425 138 422.4" fill="none" stroke="#dfe9ff" stroke-width=".8" opacity=".5" stroke-linecap="round"/>
          <circle cx="136.4" cy="424.6" r=".5" fill="#eef4ff" opacity=".5"/>
          <circle cx="132.6" cy="425.8" r=".5" fill="#eef4ff" opacity=".5"/>
          <circle cx="128.7" cy="425.6" r=".5" fill="#eef4ff" opacity=".5"/>
          <circle cx="124.9" cy="423.8" r=".5" fill="#eef4ff" opacity=".5"/>
          <circle class="cNode" cx="130" cy="400" r="1.7"/>
        </g>
      </g>
    </g>

    <g class="arm armL">
      <path d="M274 199C282.4 201.2 288.6 207.4 290.1 215.6C291.4 223.6 288.4 231.2 282 235C275.1 239 265.6 238.1 259.3 233C254.4 229 252.1 222.2 253.6 215.2C255.5 206.4 263.8 198 274 199Z" fill="url(#kLimbM)"/>
      <path d="M284.4 206.2C280 201.6 272.8 199.9 266.4 202.2" fill="none" stroke="#c8d6fa" stroke-width="1" opacity=".2" stroke-linecap="round" filter="url(#kB1)"/>
      <path d="M288.6 226.5C283.6 233.4 274.4 236.6 265.4 234.2" fill="none" stroke="#1d2470" stroke-width="1.5" opacity=".3" stroke-linecap="round" filter="url(#kB1)"/>
      <path d="M289.8 226C292.4 244 293.6 268 293 292C292.8 300 292.2 306 291.2 309.4C289 314 282.6 314.2 280.4 309.6C278.6 302 277.4 292 276.8 280C276 262 276.2 242 278 228C281.6 233.8 286.4 232.6 289.8 226Z" fill="url(#kLimbM)"/>
      <path d="M289.8 226C292.4 244 293.6 268 293 292C292.8 300 292.2 306 291.2 309.4C289 314 282.6 314.2 280.4 309.6C278.6 302 277.4 292 276.8 280C276 262 276.2 242 278 228C281.6 233.8 286.4 232.6 289.8 226Z" fill="url(#kGlyphs)" opacity=".07"/>
      <path d="M288.8 240C290.4 258 291 278 290.6 296" fill="none" stroke="#9dabf0" stroke-width="1" opacity=".3" stroke-linecap="round"/>
      <path d="M278.2 236C277.1 252 277 272 277.8 290" fill="none" stroke="#1c2268" stroke-width="1.3" opacity=".3" stroke-linecap="round" filter="url(#kB1)"/>
      <path class="cPanel" d="M290.5 241Q283.5 245 276 241"/>
      <path class="cCircuit circuitFlow" d="M276 202L286.5 246L288.5 290L288.5 306"/>
      <circle cx="285" cy="310" r="8" fill="url(#kLimbM)"/>
      <path d="M290.2 316.5Q285 319.6 279.8 316.5" fill="none" stroke="#242c7e" stroke-width=".75" opacity=".3" stroke-linecap="round"/>
      <g class="forearm forearmL">
        <path d="M292.8 306.5C295.8 318 297.5 334 297.9 350C298.2 366 297 382 294.6 395.4C293.6 400.4 284.6 400.6 283.6 395.5C281.4 383 279.9 368 279.4 352.5C278.9 337 279.4 321.5 281 308.8C284.4 314.4 289.6 313.6 292.8 306.5Z" fill="url(#kLimbM)"/>
        <path d="M295 318C296.8 334 297.2 352 296.6 368C296.2 379 295.2 388 293.8 394L289.6 394.6C291 382 291.6 366 291.4 350C291.2 336 290.4 324 289 314.6Z" fill="url(#kForeM)"/>
        <path d="M289.4 316C290.8 326 291.5 338 291.6 350C291.7 366 291.1 382 289.8 394.2" fill="none" stroke="#c4d3f9" stroke-width=".8" opacity=".3" stroke-linecap="round"/>
        <path d="M292.8 306.5C295.8 318 297.5 334 297.9 350C298.2 366 297 382 294.6 395.4C293.6 400.4 284.6 400.6 283.6 395.5C281.4 383 279.9 368 279.4 352.5C278.9 337 279.4 321.5 281 308.8C284.4 314.4 289.6 313.6 292.8 306.5Z" fill="url(#kGlyphs)" opacity=".06"/>
        <path d="M293.8 324C295.2 344 295.2 366 293.6 386" fill="none" stroke="#9dabf0" stroke-width="1" opacity=".26" stroke-linecap="round"/>
        <path class="cPanel" d="M295.5 345Q289 349 281 345"/>
        <path class="cCircuit circuitFlow" d="M288.5 312L293.5 350L291.5 392"/>
        <circle cx="289" cy="397" r="5.4" fill="url(#kLimbM)"/>
        <g class="handL">
          <path d="M294.8 395.2C297.4 399.4 298.8 404.8 298.8 410.6C298.8 416 298 420.8 296.4 424.4C292.2 427.6 285.4 427.4 281.8 423.2C280.4 419.4 279.8 414.2 280.2 409C280.6 404.2 281.8 400 283.6 397.2C287 400.7 291.6 400.3 294.8 395.2Z" fill="url(#kLimbM)"/>
          <path d="M291 404.5L292.6 420.5M287 404.5L287.4 421.5" fill="none" stroke="#28308a" stroke-width=".6" opacity=".28" stroke-linecap="round"/>
          <path d="M283.8 423.2C282.6 429.8 282.1 436.4 282.3 442.4C282.4 445.6 283.1 447.8 284.2 448.4C285.3 448.9 286.3 447.7 286.5 445.2C286.8 438.8 286.8 431.4 286.4 424.6Z" fill="url(#kLimbM)"/>
          <path d="M287.4 424.8C286.7 431.8 286.5 439.6 286.9 446.4C287.1 449.9 287.9 452.2 289 452.2C290.1 452.2 290.9 449.9 291 446.4C291.2 439.4 291 431.6 290.5 424.9Z" fill="url(#kLimbM)"/>
          <path d="M291.4 424.7C291 431 291 438.2 291.4 444.4C291.6 447.6 292.4 449.7 293.4 449.6C294.4 449.5 295.1 447.4 295.2 444.2C295.3 437.8 295.1 430.8 294.7 424.4Z" fill="url(#kLimbM)"/>
          <path d="M295.4 423C295.2 428.2 295.3 433.4 295.7 437.8C295.9 440.6 296.7 442.4 297.6 442.3C298.5 442.2 299.1 440.4 299.1 437.6C299.1 432.8 298.8 427.6 298.4 422.7Z" fill="url(#kLimbM)"/>
          <path d="M286.1 425L286.3 432.5M290.7 425.2L290.85 434M295 424.6L295.1 431.5" fill="none" stroke="#1a2160" stroke-width=".6" opacity=".5" stroke-linecap="round"/>
          <path class="finger" d="M283.1 428L282.9 435M287.1 429L287 437M291.2 428.4L291.3 436"/>
          <path d="M282.2 402.6C279.2 405.6 276.8 409.8 275.8 414.4C275.1 417.6 275.6 420.2 277.1 421C278.5 421.7 280.1 420.4 281.1 417.8C282.3 414.4 282.9 409.8 282.8 405.2Z" fill="url(#kLimbM)"/>
          <path d="M295.2 422.6Q288.4 425 282 422.4" fill="none" stroke="#dfe9ff" stroke-width=".8" opacity=".4" stroke-linecap="round"/>
          <circle cx="283.6" cy="424.6" r=".5" fill="#eef4ff" opacity=".45"/>
          <circle cx="287.4" cy="425.8" r=".5" fill="#eef4ff" opacity=".45"/>
          <circle cx="291.3" cy="425.6" r=".5" fill="#eef4ff" opacity=".45"/>
          <circle cx="295.1" cy="423.8" r=".5" fill="#eef4ff" opacity=".45"/>
          <circle class="cNode" cx="290" cy="400" r="1.7"/>
        </g>
      </g>
    </g>

    
  <g class="thinkingArm">
    <path fill="url(#kLimb)" d="M146 199 C137.6 201.2 131.4 207.4 129.9 215.6 C128.6 223.6 131.6 231.2 138 235 C144.9 239 154.4 238.1 160.7 233 C165.6 229 167.9 222.2 166.4 215.2 C164.5 206.4 156.2 198 146 199 Z"/>
    <path fill="none" stroke="#f3f8ff" stroke-width="1.4" opacity=".38" stroke-linecap="round" filter="url(#kB1)" d="M135.6 206.2 C140 201.6 147.2 199.9 153.6 202.2"/>
    <path fill="url(#kLimb)" d="M130.2 224 C128 240 127.2 259 127.6 277 C127.8 289 129 300 131.2 308.6 C133.6 315.2 141.2 315 143.2 308.4 C145 298.5 146 288 146.4 276.5 C147 259.5 146.6 241.5 144.8 226 C140.6 232.8 134.4 231.4 130.2 224 Z"/>
    <circle cx="136.5" cy="306" r="7.8" fill="url(#kLimb)"/>
    <path fill="url(#kLimb)" d="M131.6 301.5 C137.2 293.6 146.4 283.8 156.6 274.4 C168 263.8 180.6 253.6 192 245.4 C197.6 241.4 203.4 247.6 199.8 253.4 C191.2 264.2 180.8 275.2 170.2 285 C160.4 294 150.8 301.8 142.8 307.6 C137.6 311.2 132.6 307.2 131.6 301.5 Z"/>
    <path fill="none" stroke="#eef4ff" stroke-width="1" opacity=".35" stroke-linecap="round" d="M136 299 C146 289.6 158 279 170 269.2 C178 262.6 186 256.4 193 251.4"/>
    <path fill="url(#kLimb)" d="M191.4 246.2 C193 240.8 196.4 235.6 200.8 231.8 C203.4 229.6 206.2 231.4 205.4 234.6 C204.8 237 203.6 239.6 202 242 C204.4 240.4 207 239.2 209.4 238.8 C212.4 238.4 213.6 241.4 211.4 243.4 C209 245.4 206 247 203 248 C205 247.8 207 248.2 208.6 249 C211.2 250.2 210.4 253.2 207.6 253.6 C203.4 254.2 198.6 253.6 194.8 251.8 C192.2 250.6 190.8 248.4 191.4 246.2 Z"/>
    <path fill="url(#kLimb)" d="M200.8 231.8 C203 226.8 206 222.2 209.4 218.8 C211.6 216.6 214.2 218.4 213 221.4 C211.2 225.8 208.6 230.2 205.8 233.8 C204 232.6 202.2 232 200.8 231.8 Z"/>
    <path class="finger" d="M202.6 240.8 L208.8 239.6 M203.4 246.4 L208 246.8 M206.8 230.4 L211 222.4"/>
    <path class="cCircuit circuitFlow" d="M140 205 L133 250 L132.6 298 L150 290 L180 262 L198 248"/>
    <circle class="cNode" cx="136.5" cy="306" r="1.9"/>
  </g>

    <g class="headGroup">
      <!-- neck -->
      <path fill="url(#kNeck)" d="M200.8 150 L200.8 174 C200.8 184 196 190 188.4 193.8 L231.6 193.8 C224 190 219.2 184 219.2 174 L219.2 150 Z"/>
      <path fill="#232c82" opacity=".42" filter="url(#kB1)" d="M200.8 151 L219.2 151 L219.2 162 C212.4 166.8 207.6 166.8 200.8 162 Z"/>
      <path fill="none" stroke="#39429f" stroke-width=".7" opacity=".32" stroke-linecap="round" d="M204 162 C205.6 170 206.6 178 206.9 185 M216 162 C214.4 170 213.4 178 213.1 185"/>
      <path fill="#5b67c6" opacity=".3" filter="url(#kB2)" d="M188.4 193.8 L231.6 193.8 L233 197.5 L187 197.5 Z"/>
      <path fill="none" stroke="#c4d2f8" stroke-width=".9" opacity=".5" stroke-linecap="round" d="M198.5 188.5 Q210 194 221.5 188.5"/>
      <path fill="none" stroke="#9fb0f2" stroke-width=".7" opacity=".32" stroke-linecap="round" d="M200 184.5 Q210 189.5 220 184.5"/>
      <!-- back hair mass: chin-length bob -->
      <path fill="url(#kHair)" d="M210 60.5 C193.4 60.5 181.4 67.6 175.8 79.4 C171.2 89.2 169.6 101.2 171.2 113.6 C172.8 126.4 176.4 138.4 181.6 148.6 C184.2 154.2 183.8 159.6 180.4 164.4 C186.6 167.2 192.8 165 196 158.8 C197.6 155.6 198.8 152.4 199.6 149.4 L220.4 149.4 C221.2 152.4 222.4 155.6 224 158.8 C227.2 165 233.4 167.2 239.6 164.4 C236.2 159.6 235.8 154.2 238.4 148.6 C243.6 138.4 247.2 126.4 248.8 113.6 C250.4 101.2 248.8 89.2 244.2 79.4 C238.6 67.6 226.6 60.5 210 60.5 Z"/>
      <!-- face -->
      <path fill="url(#kSkin)" d="M210 75 C199.6 75 191.4 80.4 187.6 90 C185.4 95.6 184.4 102.4 184.6 109.6 C184.9 119.8 187 129.6 191 137.6 C194.2 143.8 198.2 149.4 202.8 152.9 C205 154.6 207.6 155.8 210 155.8 C212.4 155.8 215 154.6 217.2 152.9 C221.8 149.4 225.8 143.8 229 137.6 C233 129.6 235.1 119.8 235.4 109.6 C235.6 102.4 234.6 95.6 232.4 90 C228.6 80.4 220.4 75 210 75 Z"/>
      <!-- face sculpt -->
      <path fill="#5f6cd0" opacity=".28" filter="url(#kB2)" d="M229 137.6 C233 129.6 235.1 119.8 235.4 109.6 C235.6 102.4 234.6 95.6 232.4 90 C230.6 85.2 227.8 81.4 224.2 78.8 C227.6 86 229.3 96.4 228.9 108.8 C228.4 125.2 225.1 139.2 219.2 149.2 C222.9 146.2 226.3 142.2 229 137.6 Z"/>
      <path fill="#6a76d8" opacity=".18" filter="url(#kB2)" d="M187.6 90 C185.4 95.6 184.4 102.4 184.6 109.6 C184.8 115.6 185.6 121.4 187 126.8 C188.1 120 188.4 112 188.2 104.4 C188.1 99.2 187.9 94.2 187.6 90 Z"/>
      <path fill="#ffffff" opacity=".28" filter="url(#kB2)" d="M204.5 89.5 C206.4 88.4 213.6 88.4 215.5 89.5 C214.6 92 205.4 92 204.5 89.5 Z"/>
      <path fill="#ffffff" opacity=".16" filter="url(#kB2)" d="M188.8 125.8 C191.2 125.2 194.2 126.6 195.8 129 C193.4 129.6 190.4 128.4 188.8 125.8 Z"/>
      <path fill="#8d99ec" opacity=".12" filter="url(#kB2)" d="M190.6 131.5 C193.2 131.9 195.6 133.9 196.7 136.7 C194.1 136.7 191.5 134.7 190.6 131.5 Z"/>
      <path fill="#8d99ec" opacity=".1" filter="url(#kB2)" d="M229.4 131.5 C226.8 131.9 224.4 133.9 223.3 136.7 C225.9 136.7 228.5 134.7 229.4 131.5 Z"/>
      <path fill="#2c3688" opacity=".32" filter="url(#kB2)" d="M202 153.5 C204.8 156.2 207.4 157.6 210 157.6 C212.6 157.6 215.2 156.2 218 153.5 C215.8 158.4 213 160.9 210 160.9 C207 160.9 204.2 158.4 202 153.5 Z"/>
      <!-- brows -->
      <path fill="#1c2560" d="M190.4 112.6 C191.7 110 194.3 108.4 197.3 108.3 C199.8 108.2 202.2 109.1 203.7 110.5 C204.3 111.1 203.9 112 203.1 111.8 C200.5 111.1 197.3 111.1 194.7 111.8 C193 112.2 191.5 113 190.7 113.8 C190.2 114.2 189.9 113.6 190.4 112.6 Z"/>
      <path fill="#1c2560" d="M229.6 112.6 C228.3 110 225.7 108.4 222.7 108.3 C220.2 108.2 217.8 109.1 216.3 110.5 C215.7 111.1 216.1 112 216.9 111.8 C219.5 111.1 222.7 111.1 225.3 111.8 C227 112.2 228.5 113 229.3 113.8 C229.8 114.2 230.1 113.6 229.6 112.6 Z"/>
      <!-- eye sockets -->
      <path fill="#414ba8" opacity=".18" filter="url(#kB2)" d="M190.6 115.8 C192.8 113.2 196.4 112 200 112.9 C201.4 113.3 202.2 114.3 202 115.2 C198.2 114 193.9 114.4 190.6 115.8 Z"/>
      <path fill="#414ba8" opacity=".18" filter="url(#kB2)" d="M229.4 115.8 C227.2 113.2 223.6 112 220 112.9 C218.6 113.3 217.8 114.3 218 115.2 C221.8 114 226.1 114.4 229.4 115.8 Z"/>
      <g class="eyePair">
        <!-- scleras -->
        <path d="M190.3 119.3 C191.9 116.2 194.9 114.7 198 115.1 C200.3 115.4 202 116.6 202.8 118.4 C201.3 121.4 198.3 122.9 195 122.5 C192.8 122.2 191.2 121 190.3 119.3 Z" fill="#eef4ff"/>
        <path d="M229.7 119.3 C228.1 116.2 225.1 114.7 222 115.1 C219.7 115.4 218 116.6 217.2 118.4 C218.7 121.4 221.7 122.9 225 122.5 C227.2 122.2 228.8 121 229.7 119.3 Z" fill="#eef4ff"/>
        <path d="M190.9 120.2 C192.3 121.6 194.1 122.4 196.1 122.55 C194 122.7 192 121.8 190.9 120.2 Z" fill="#aebbea" opacity=".7"/>
        <path d="M229.1 120.2 C227.7 121.6 225.9 122.4 223.9 122.55 C226 122.7 228 121.8 229.1 120.2 Z" fill="#aebbea" opacity=".7"/>
        <g class="pupilPair" clip-path="url(#kEyeClip)">
          <circle cx="196.3" cy="118.7" r="3.15" fill="url(#kIris)"/>
          <circle cx="196.3" cy="118.7" r="3.15" fill="none" stroke="#16306e" stroke-width=".65"/>
          <circle cx="196.3" cy="118.7" r="1.4" fill="#040a24"/>
          <circle cx="197.3" cy="117.4" r=".7" fill="#ffffff"/>
          <circle cx="195" cy="120" r=".3" fill="#bfe4ff" opacity=".8"/>
          <circle cx="223.7" cy="118.7" r="3.15" fill="url(#kIris)"/>
          <circle cx="223.7" cy="118.7" r="3.15" fill="none" stroke="#16306e" stroke-width=".65"/>
          <circle cx="223.7" cy="118.7" r="1.4" fill="#040a24"/>
          <circle cx="224.7" cy="117.4" r=".7" fill="#ffffff"/>
          <circle cx="222.4" cy="120" r=".3" fill="#bfe4ff" opacity=".8"/>
        </g>
        <!-- lash lines -->
        <path class="lash" d="M189.9 119 C191.7 115.8 194.9 114.3 198.2 114.7 C200.5 115 202.2 116.3 203 118.2"/>
        <path class="lash" d="M230.1 119 C228.3 115.8 225.1 114.3 221.8 114.7 C219.5 115 217.8 116.3 217 118.2"/>
        <path d="M202.5 117.2 L204.4 116.1" fill="none" stroke="#101d53" stroke-width=".9" stroke-linecap="round"/>
        <path d="M217.5 117.2 L215.6 116.1" fill="none" stroke="#101d53" stroke-width=".9" stroke-linecap="round"/>
        <!-- lid creases + lower lids -->
        <path d="M191.3 113.4 C193.9 111.2 197.5 110.7 200.7 111.8" fill="none" stroke="#3a49a8" stroke-width=".55" opacity=".45"/>
        <path d="M228.7 113.4 C226.1 111.2 222.5 110.7 219.3 111.8" fill="none" stroke="#3a49a8" stroke-width=".55" opacity=".45"/>
        <path d="M191.9 121 C194.2 122.4 197 122.9 199.7 122.4" fill="none" stroke="#f4f9ff" stroke-width=".45" opacity=".7"/>
        <path d="M228.1 121 C225.8 122.4 223 122.9 220.3 122.4" fill="none" stroke="#f4f9ff" stroke-width=".45" opacity=".7"/>
        <path d="M191.7 122 C194 123.4 197 123.9 199.9 123.3" fill="none" stroke="#8b9de8" stroke-width=".5" opacity=".4"/>
        <path d="M228.3 122 C226 123.4 223 123.9 220.1 123.3" fill="none" stroke="#8b9de8" stroke-width=".5" opacity=".4"/>
      </g>
      <!-- nose: soft planes, no hard lines -->
      <path fill="#4a57b4" opacity=".16" filter="url(#kB2)" d="M211.4 121 C211.9 126 212 131 211.7 135.4 L210.2 135.4 C210.5 130.6 210.5 125.6 210.2 121 Z"/>
      <path fill="#ffffff" opacity=".26" filter="url(#kB1)" d="M207.7 122 C208.2 126.6 208.3 131.4 208 135.6 C207.3 131.4 207.2 126.6 207.7 122 Z"/>
      <ellipse cx="208.9" cy="135" rx="1.7" ry="1.1" fill="#f2f7ff" opacity=".45" filter="url(#kB1)"/>
      <path fill="none" stroke="#26327f" stroke-width=".6" opacity=".3" stroke-linecap="round" d="M205.5 139.9 Q204.9 140.7 205.6 141.4 M212.7 140.1 Q213.4 140.9 212.8 141.5"/>
      <path fill="#2b3585" opacity=".2" filter="url(#kB1)" d="M206.8 141.8 Q210 142.8 213.2 141.8 L212.8 143 Q210 143.8 207.2 143 Z"/>
      <!-- mouth: viseme set around (210,150), jaw pivot 148 -->
      <g class="jaw">
        <g class="viseme viseme-rest">
          <path d="M203.7 148.8 C205.9 147.2 207.9 146.6 208.9 147.3 C209.6 146.9 210.4 146.9 211.1 147.3 C212.1 146.6 214.1 147.2 216.3 148.8 C214.3 150 212.2 150.55 210 150.55 C207.8 150.55 205.7 150 203.7 148.8 Z" fill="#545cc0" opacity=".95"/>
          <path d="M208.1 147.1 Q210 146.5 211.9 147.1" fill="none" stroke="#e8efff" stroke-width=".5" opacity=".5"/>
          <path d="M203.9 149.3 Q210 151.1 216.1 149.3" fill="none" stroke="#232b72" stroke-width=".7" opacity=".6"/>
          <path d="M203.9 149.3 Q203.1 148.9 202.7 148.2" fill="none" stroke="#232b72" stroke-width=".6" opacity=".45"/>
          <path d="M216.1 149.3 Q216.9 148.9 217.3 148.2" fill="none" stroke="#232b72" stroke-width=".6" opacity=".45"/>
          <path d="M204.7 150.9 Q210 154.6 215.3 150.9 Q213.5 155.1 210 155.2 Q206.5 155.1 204.7 150.9 Z" fill="#9aa3f0" opacity=".92"/>
          <ellipse cx="209.5" cy="152.3" rx="1.8" ry=".7" fill="#ffffff" opacity=".55" filter="url(#kB1)"/>
          <path d="M207.2 156.5 Q210 157.5 212.8 156.5" fill="none" stroke="#232c74" stroke-width=".65" opacity=".22" filter="url(#kB1)"/>
        </g>
        <g class="viseme viseme-m">
          <path d="M203.6 149.2 Q210 147.3 216.4 149.2 Q210 151.5 203.6 149.2 Z" fill="#39408f"/>
          <path d="M204.4 149.4 Q210 151 215.6 149.4" fill="none" stroke="#1e2666" stroke-width=".65" opacity=".6"/>
          <path d="M205 151.5 Q210 153.5 215 151.5" fill="none" stroke="#7d87e2" stroke-width=".9" opacity=".7"/>
        </g>
        <g class="viseme viseme-a">
          <path d="M204.6 147.6 Q210 145.8 215.4 147.6 C216.2 152.8 214 158.2 210 159.6 C206 158.2 203.8 152.8 204.6 147.6 Z" fill="#0a1034"/>
          <path d="M205.6 147.9 Q210 146.6 214.4 147.9 L214 150.4 Q210 149.2 206 150.4 Z" fill="#f0f6ff"/>
          <path d="M207 156.4 Q210 154.6 213 156.4 Q211.6 158.7 210 158.8 Q208.4 158.7 207 156.4 Z" fill="#7c5ba6"/>
          <path d="M204.6 147.6 Q210 145.8 215.4 147.6" fill="none" stroke="#545cc0" stroke-width="1" opacity=".8"/>
        </g>
        <g class="viseme viseme-e">
          <path d="M202.8 148.2 Q210 146.4 217.2 148.2 Q215.8 153.6 210 154.4 Q204.2 153.6 202.8 148.2 Z" fill="#0b1638"/>
          <path d="M204 148.3 Q210 147 216 148.3 L215.4 150.9 Q210 149.8 204.6 150.9 Z" fill="#f0f6ff"/>
          <path d="M205.4 152.6 Q210 154.4 214.6 152.6" fill="none" stroke="#7d87e2" stroke-width=".8" opacity=".7"/>
        </g>
        <g class="viseme viseme-o">
          <ellipse cx="210" cy="151.6" rx="3.8" ry="5" fill="#091334"/>
          <ellipse cx="210" cy="151.6" rx="4.9" ry="6" fill="none" stroke="#4b58b4" stroke-width="1.2"/>
          <path d="M207.5 147.7 Q210 146.7 212.5 147.7" fill="none" stroke="#dce8ff" stroke-width=".55" opacity=".7"/>
          <path d="M207.8 155.8 Q210 156.7 212.2 155.8" fill="none" stroke="#8d95ec" stroke-width=".6" opacity=".6"/>
        </g>
        <g class="viseme viseme-f">
          <path d="M202.8 148.5 Q210 146.7 217.2 148.5 L215.6 151.1 Q210 149.5 204.4 151.1 Z" fill="#f0f6ff"/>
          <path d="M203.4 152.1 Q210 155.5 216.6 152.1 Q210 157.8 203.4 152.1 Z" fill="#3a4c98"/>
        </g>
      </g>
      <!-- face rim light (viewer-left) -->
      <path fill="none" stroke="#f4f8ff" stroke-width=".95" opacity=".42" stroke-linecap="round" d="M186.8 96 C185.3 103.4 185.2 111.6 186.3 119.8 C187.4 128.4 189.9 136.4 193.5 143"/>
      <!-- front hair: side-swept bob panels over the face -->
      <path fill="url(#kHairFr)" d="M219 70 C209.8 72.4 201.6 76.6 195 82.4 C190.4 86.6 186.9 91.8 184.6 97.8 C182.4 103.8 181.5 110.8 181.8 118 C182.3 129.6 185 141 189.6 149.8 C191.7 153.9 191.3 158.1 188.2 161.7 C193.6 161.3 197.9 157.9 199.2 152.4 C196.9 147.5 194.9 141.4 193.6 134.8 C192.2 127.4 192 119.4 192.8 111.6 C193.8 103.6 196.1 95.8 199.8 89.2 C204.1 81.6 209.9 75.4 219 70 Z"/>
      <path fill="url(#kHairFr)" d="M219 70 C226.6 71.8 233.2 75.2 238 80.4 C242.6 85.4 245.7 92.2 247.1 99.6 C248.7 108.8 248.1 118.8 246 128.2 C244.5 134.8 242.2 141 239.4 146.6 C237.3 150.9 237.7 155.1 240.9 158.6 C235.3 158.2 231 154.8 229.8 149.2 C232.2 141 233.6 131.8 233.8 122.4 C234 112.2 232.6 102 229.5 93.2 C227.4 87.2 224.4 81.6 220.5 76.6 C220 74.4 219.5 72.2 219 70 Z"/>
      <path fill="url(#kHairFr)" d="M216.4 71.2 C212.4 75.2 208.6 78.8 204.6 82.6 C201.4 85.6 198.4 89.2 195.8 93.2 C197.1 87.6 199.4 82.3 202.8 77.8 C206.6 72.9 211.4 70.5 216.4 71.2 Z"/>
      <!-- soft fringe shadow -->
      <path fill="#39429e" opacity=".12" filter="url(#kB2)" d="M196.2 93.2 C199 89 202.2 85.2 205.6 82.2 C210.2 78.2 214.6 74.4 219 70 L220.4 72.6 C216 77 211.6 80.8 207.2 84.6 C203.8 87.6 200.6 91.4 197.8 95.6 Z"/>
      <!-- hair sheen -->
      <path class="hairLine" d="M183 90 Q191 71.5 208.5 68 M244.5 118 Q245.5 136 240 150 M175.5 118 Q174.5 136 180 150"/>
      <path fill="none" stroke="#8ba1f4" stroke-width="1.5" opacity=".55" stroke-linecap="round" filter="url(#kB1)" d="M185.5 93 C188.8 82.8 196.6 75.2 206.6 71.8"/>
      <path fill="none" stroke="#6079e2" stroke-width="1.05" opacity=".42" stroke-linecap="round" d="M234.4 96 C236.4 103.6 237.1 112.4 236.4 121.2 M184.4 116 C184.8 126.4 186.8 136.6 190.2 145"/>
      <path fill="none" stroke="#4d61cf" stroke-width=".8" opacity=".4" stroke-linecap="round" d="M198.6 89.8 C203.8 84.8 210 81 216.6 78.4 M231 102.4 C232.3 110.4 232.3 119.6 231.2 128.4"/>
      <!-- neck data rail up the nape -->
      <path class="cCircuit" d="M206 191 L206 170 M214 191 L214 170"/>
      <circle class="cNode" cx="210" cy="193.5" r="1.6"/>
      <!-- subtle temple trace -->
      <path class="cCircuit" opacity=".3" d="M188.5 129 L191.2 132.6 L190.8 138"/>
    </g>
  </g>
</svg>